<svg width="40" height="40" viewBox="0 0 40 40" fill="none" xmlns="http://www.w3.org/2000/svg">
<rect width="40" height="40" rx="20" fill="#98A8B8"/>
<path d="M30.8195 27.2321H21.1808C20.5287 27.2321 20.0002 26.6253 20.0002 25.8767V10.3397C20.0002 9.59114 20.5287 8.98438 21.1808 8.98438H30.8195C31.4716 8.98438 32 9.59114 32 10.3397V25.8767C32 26.6249 31.4716 27.2321 30.8195 27.2321Z" fill="white" stroke="#27567C" stroke-width="0.5" stroke-miterlimit="10" stroke-linecap="round" stroke-linejoin="round"/>
<path d="M18.8193 27.2321H9.18052C8.5285 27.2321 8 26.6253 8 25.8767V10.3397C8 9.59114 8.5285 8.98438 9.18052 8.98438H18.8193C19.4713 8.98438 19.9998 9.59114 19.9998 10.3397V25.8767C19.9998 26.6249 19.4713 27.2321 18.8193 27.2321Z" fill="white" stroke="#27567C" stroke-width="0.5" stroke-miterlimit="10" stroke-linecap="round" stroke-linejoin="round"/>
<path d="M32 22.8249V10.4271C32 9.63023 31.4375 8.98438 30.7434 8.98438H21.2569C20.5628 8.98438 20.0002 9.63023 20.0002 10.4271V12.9281C25.5176 13.1041 30.1882 17.1693 32 22.8249Z" fill="#E6E6E6"/>
<path d="M30.7433 8C31.0348 8 31.3125 8.06822 31.5653 8.19088" stroke="#27567C" stroke-width="0.5" stroke-miterlimit="10" stroke-linecap="round" stroke-linejoin="round"/>
<path d="M25.9999 8H28.3716" stroke="#27567C" stroke-width="0.5" stroke-miterlimit="10" stroke-linecap="round" stroke-linejoin="round"/>
<path d="M18.9286 11.5065H21.0716" stroke="#27567C" stroke-width="0.5" stroke-miterlimit="10" stroke-linecap="round" stroke-linejoin="round"/>
<path d="M18.9286 13.3926H21.0716" stroke="#27567C" stroke-width="0.5" stroke-miterlimit="10" stroke-linecap="round" stroke-linejoin="round"/>
<path d="M18.9286 15.2788H21.0716" stroke="#27567C" stroke-width="0.5" stroke-miterlimit="10" stroke-linecap="round" stroke-linejoin="round"/>
<path d="M18.9286 17.165H21.0716" stroke="#27567C" stroke-width="0.5" stroke-miterlimit="10" stroke-linecap="round" stroke-linejoin="round"/>
<path d="M18.9286 19.0513H21.0716" stroke="#27567C" stroke-width="0.5" stroke-miterlimit="10" stroke-linecap="round" stroke-linejoin="round"/>
<path d="M18.9286 20.9371H21.0716" stroke="#27567C" stroke-width="0.5" stroke-miterlimit="10" stroke-linecap="round" stroke-linejoin="round"/>
<path d="M18.9286 22.8234H21.0716" stroke="#27567C" stroke-width="0.5" stroke-miterlimit="10" stroke-linecap="round" stroke-linejoin="round"/>
<path d="M18.9286 24.7096H21.0716" stroke="#27567C" stroke-width="0.5" stroke-miterlimit="10" stroke-linecap="round" stroke-linejoin="round"/>
<path d="M30.8195 27.2321H21.1808C20.5287 27.2321 20.0002 26.6253 20.0002 25.8767V10.3397C20.0002 9.59114 20.5287 8.98438 21.1808 8.98438H30.8195C31.4716 8.98438 32 9.59114 32 10.3397V25.8767C32 26.6249 31.4716 27.2321 30.8195 27.2321Z" stroke="#27567C" stroke-width="0.5" stroke-miterlimit="10" stroke-linecap="round" stroke-linejoin="round"/>
<path d="M18.8193 27.2321H9.18052C8.5285 27.2321 8 26.6253 8 25.8767V10.3397C8 9.59114 8.5285 8.98438 9.18052 8.98438H18.8193C19.4713 8.98438 19.9998 9.59114 19.9998 10.3397V25.8767C19.9998 26.6249 19.4713 27.2321 18.8193 27.2321Z" stroke="#27567C" stroke-width="0.5" stroke-miterlimit="10" stroke-linecap="round" stroke-linejoin="round"/>
<path d="M23.4077 11.6616H28.9935" stroke="#27567C" stroke-width="0.5" stroke-miterlimit="10" stroke-linecap="round" stroke-linejoin="round"/>
<path d="M23.4077 13.3926H28.9935" stroke="#27567C" stroke-width="0.5" stroke-miterlimit="10" stroke-linecap="round" stroke-linejoin="round"/>
<path d="M23.4077 15.1237H28.9935" stroke="#27567C" stroke-width="0.5" stroke-miterlimit="10" stroke-linecap="round" stroke-linejoin="round"/>
<path d="M23.4077 16.855H28.9935" stroke="#27567C" stroke-width="0.5" stroke-miterlimit="10" stroke-linecap="round" stroke-linejoin="round"/>
<path d="M23.4077 18.5861H28.9935" stroke="#27567C" stroke-width="0.5" stroke-miterlimit="10" stroke-linecap="round" stroke-linejoin="round"/>
<path d="M10.726 11.6616H16.3117" stroke="#27567C" stroke-width="0.5" stroke-miterlimit="10" stroke-linecap="round" stroke-linejoin="round"/>
<path d="M10.726 13.3926H16.3117" stroke="#27567C" stroke-width="0.5" stroke-miterlimit="10" stroke-linecap="round" stroke-linejoin="round"/>
<path d="M10.726 15.1237H16.3117" stroke="#27567C" stroke-width="0.5" stroke-miterlimit="10" stroke-linecap="round" stroke-linejoin="round"/>
<path d="M10.726 16.855H16.3117" stroke="#27567C" stroke-width="0.5" stroke-miterlimit="10" stroke-linecap="round" stroke-linejoin="round"/>
<path d="M10.726 18.5861H16.3117" stroke="#27567C" stroke-width="0.5" stroke-miterlimit="10" stroke-linecap="round" stroke-linejoin="round"/>
<path d="M21.1498 31.1804L19.5129 29.3011L26.4879 21.2936L27.3062 22.2334L28.1248 23.1729L21.1498 31.1804Z" fill="#FA6880"/>
<path d="M20.0082 31.8715L18.9111 30.612C18.7622 30.4407 18.7622 30.1632 18.9111 29.9922L20.2425 28.4636L21.0611 29.4031L21.8794 30.3429L20.548 31.8715C20.3991 32.0429 20.1574 32.0429 20.0082 31.8715Z" fill="#FDC47B"/>
<path d="M21.0552 31.5618L19.1809 29.4103L20.1241 28.3275L21.0612 29.4034L21.9983 30.4794L21.0552 31.5618Z" fill="#27567C"/>
<path d="M28.752 20.8245C28.793 20.6708 28.6675 20.5266 28.5336 20.5738L27.9951 20.7631L28.587 21.4427L28.752 20.8245Z" fill="#FA6880"/>
<path d="M27.9951 20.7632L26.488 21.2937L28.1249 23.173L28.5867 21.4428L27.9951 20.7632Z" fill="#CCCCCC"/>
<path d="M19.9375 29.1957L20.483 29.822" stroke="white" stroke-width="0.5" stroke-miterlimit="10" stroke-linecap="round" stroke-linejoin="round"/>
<path d="M27.0864 23.1653L22.9229 27.9454" stroke="#27567C" stroke-width="0.5" stroke-miterlimit="10" stroke-linecap="round" stroke-linejoin="round"/>
<path d="M13.519 20.7631H10.726V24.9912H13.519V20.7631Z" fill="#FDC47B"/>
<path d="M11.4521 22.4354L12.1279 23.2112" stroke="#FA6880" stroke-width="0.5" stroke-miterlimit="10" stroke-linecap="round" stroke-linejoin="round"/>
<path d="M12.7925 22.4354L12.1168 23.2112" stroke="#FA6880" stroke-width="0.5" stroke-miterlimit="10" stroke-linecap="round" stroke-linejoin="round"/>
</svg>
