<svg width="40" height="40" viewBox="0 0 40 40" fill="none" xmlns="http://www.w3.org/2000/svg">
<rect width="40" height="40" rx="20" fill="#98A8B8"/>
<path d="M18.793 32C24.7538 32 29.586 26.6274 29.586 20C29.586 13.3726 24.7538 8 18.793 8C12.8322 8 8 13.3726 8 20C8 26.6274 12.8322 32 18.793 32Z" fill="white"/>
<path d="M24.4499 9.77979C25.0354 11.258 25.3631 12.8914 25.3631 14.6103C25.3631 21.2381 20.5308 26.6103 14.5701 26.6103C12.4956 26.6103 10.5584 25.9584 8.9137 24.8305C10.5858 29.0517 14.3789 32 18.794 32C24.7546 32 29.587 26.6272 29.587 20C29.5865 15.6793 27.5315 11.893 24.4499 9.77979Z" fill="#E6E6E6"/>
<mask id="path-4-outside-1_76_4" maskUnits="userSpaceOnUse" x="7" y="7" width="24" height="26" fill="black">
<rect fill="white" x="7" y="7" width="24" height="26"/>
<path d="M11.1611 28.4853C10.673 27.9426 10.231 27.3478 9.84331 26.7094C9.45518 26.071 9.12137 25.3887 8.84798 24.6711C8.57503 23.9534 8.36292 23.1996 8.21906 22.4187C8.07519 21.6372 8 20.8288 8 20.0005C8 19.1722 8.07563 18.3632 8.21906 17.5818C8.36292 16.8004 8.57503 16.047 8.84798 15.3294C9.12094 14.6113 9.45518 13.9294 9.84331 13.2911C10.231 12.6527 10.673 12.0583 11.1611 11.5151C11.6492 10.9724 12.1843 10.481 12.7584 10.0499C13.3326 9.6184 13.9463 9.24726 14.5918 8.9433C15.2372 8.63982 15.9152 8.404 16.6176 8.24404C17.3204 8.08409 18.0476 8 18.793 8C19.538 8 20.2656 8.08409 20.9679 8.24404C21.6708 8.404 22.3484 8.63982 22.9938 8.9433C23.6397 9.24678 24.253 9.6184 24.8271 10.0499C25.4013 10.4815 25.9363 10.9724 26.4244 11.5151C26.9125 12.0583 27.3546 12.6527 27.7423 13.2911C28.1304 13.9294 28.4642 14.6118 28.7376 15.3294C29.0105 16.047 29.2226 16.8009 29.3665 17.5818C29.5104 18.3628 29.586 19.1717 29.586 20.0005C29.586 20.8288 29.5104 21.6377 29.3665 22.4187C29.2226 23.2001 29.0105 23.9534 28.7376 24.6711C28.4646 25.3892 28.1304 26.071 27.7423 26.7094C27.3546 27.3478 26.9125 27.9426 26.4244 28.4853C25.9363 29.028 25.4013 29.5195 24.8271 29.9506C24.253 30.3821 23.6392 30.7532 22.9938 31.0572C22.3484 31.3607 21.6703 31.5965 20.9679 31.7564"/>
</mask>
<path d="M10.7894 28.8197C10.9741 29.025 11.2902 29.0418 11.4955 28.8571C11.7008 28.6724 11.7176 28.3563 11.5329 28.151L11.1611 28.4853L10.7894 28.8197ZM9.84331 26.7094L10.2707 26.4499L10.2705 26.4496L9.84331 26.7094ZM8.84798 24.6711L8.38065 24.8488L8.38074 24.8491L8.84798 24.6711ZM8.21906 22.4187L7.72732 22.5092L7.72733 22.5092L8.21906 22.4187ZM8.21906 17.5818L7.72732 17.4913L7.72727 17.4916L8.21906 17.5818ZM8.84798 15.3294L9.31532 15.5072L9.31536 15.5071L8.84798 15.3294ZM9.84331 13.2911L10.2705 13.5508L10.2707 13.5506L9.84331 13.2911ZM11.1611 11.5151L10.7894 11.1808L10.7892 11.1809L11.1611 11.5151ZM12.7584 10.0499L13.0586 10.4498L13.0589 10.4496L12.7584 10.0499ZM14.5918 8.9433L14.379 8.49082L14.3787 8.49095L14.5918 8.9433ZM16.6176 8.24404L16.5067 7.75651L16.5066 7.75652L16.6176 8.24404ZM20.9679 8.24404L20.8569 8.73156L20.857 8.73158L20.9679 8.24404ZM22.9938 8.9433L22.7811 9.39578L22.7812 9.39583L22.9938 8.9433ZM26.4244 11.5151L26.7963 11.1809L26.7962 11.1808L26.4244 11.5151ZM27.7423 13.2911L27.3149 13.5506L27.315 13.5508L27.7423 13.2911ZM28.7376 15.3294L29.2049 15.1517L29.2048 15.1514L28.7376 15.3294ZM29.3665 22.4187L28.8748 22.3281L28.8748 22.3281L29.3665 22.4187ZM28.7376 24.6711L28.2702 24.4933L28.2702 24.4934L28.7376 24.6711ZM27.7423 26.7094L27.315 26.4496L27.3149 26.4499L27.7423 26.7094ZM24.8271 29.9506L24.5269 29.5507L24.5267 29.5509L24.8271 29.9506ZM22.9938 31.0572L23.2066 31.5097L23.2068 31.5095L22.9938 31.0572ZM20.8569 31.2689C20.5877 31.3302 20.4191 31.5982 20.4804 31.8675C20.5417 32.1367 20.8097 32.3053 21.079 32.244L20.9679 31.7564L20.8569 31.2689ZM11.1611 28.4853L11.5329 28.151C11.0659 27.6317 10.6424 27.062 10.2707 26.4499L9.84331 26.7094L9.41595 26.969C9.81961 27.6336 10.2802 28.2536 10.7894 28.8197L11.1611 28.4853ZM9.84331 26.7094L10.2705 26.4496C9.89845 25.8377 9.57796 25.1827 9.31523 24.4931L8.84798 24.6711L8.38074 24.8491C8.66479 25.5947 9.01191 26.3044 9.41608 26.9692L9.84331 26.7094ZM8.84798 24.6711L9.31532 24.4933C9.05312 23.804 8.84918 23.0793 8.71078 22.3281L8.21906 22.4187L7.72733 22.5092C7.87667 23.3199 8.09694 24.1029 8.38065 24.8488L8.84798 24.6711ZM8.21906 22.4187L8.71079 22.3281C8.57244 21.5766 8.5 20.7985 8.5 20.0005H8H7.5C7.5 20.8591 7.57795 21.6979 7.72732 22.5092L8.21906 22.4187ZM8 20.0005H8.5C8.5 19.2027 8.57284 18.4239 8.71084 17.6721L8.21906 17.5818L7.72727 17.4916C7.57841 18.3026 7.5 19.1417 7.5 20.0005H8ZM8.21906 17.5818L8.71079 17.6724C8.84917 16.9207 9.05311 16.1965 9.31532 15.5072L8.84798 15.3294L8.38065 15.1517C8.09695 15.8975 7.87667 16.6801 7.72732 17.4913L8.21906 17.5818ZM8.84798 15.3294L9.31536 15.5071C9.5775 14.8174 9.89831 14.163 10.2705 13.5508L9.84331 13.2911L9.41608 13.0313C9.01204 13.6959 8.66438 14.4052 8.38061 15.1518L8.84798 15.3294ZM9.84331 13.2911L10.2707 13.5506C10.6423 12.9387 11.0658 12.3693 11.533 11.8493L11.1611 11.5151L10.7892 11.1809C10.2803 11.7473 9.81969 12.3668 9.41595 13.0315L9.84331 13.2911ZM11.1611 11.5151L11.5329 11.8495C11.9999 11.3303 12.5111 10.8609 13.0586 10.4498L12.7584 10.0499L12.4583 9.65008C11.8575 10.1011 11.2986 10.6146 10.7894 11.1808L11.1611 11.5151ZM12.7584 10.0499L13.0589 10.4496C13.6063 10.0382 14.1908 9.68481 14.8048 9.39565L14.5918 8.9433L14.3787 8.49095C13.7019 8.80971 13.0589 9.19861 12.458 9.65025L12.7584 10.0499ZM14.5918 8.9433L14.8045 9.39578C15.4182 9.10725 16.0621 8.88335 16.7286 8.73156L16.6176 8.24404L16.5066 7.75652C15.7683 7.92465 15.0563 8.17239 14.379 8.49082L14.5918 8.9433ZM16.6176 8.24404L16.7286 8.73158C17.3954 8.5798 18.0854 8.5 18.793 8.5V8V7.5C18.0098 7.5 17.2454 7.58837 16.5067 7.75651L16.6176 8.24404ZM18.793 8V8.5C19.5002 8.5 20.1906 8.57981 20.8569 8.73156L20.9679 8.24404L21.079 7.75652C20.3406 7.58837 19.5757 7.5 18.793 7.5V8ZM20.9679 8.24404L20.857 8.73158C21.5238 8.88334 22.1674 9.10722 22.7811 9.39578L22.9938 8.9433L23.2066 8.49082C22.5294 8.17241 21.8177 7.92465 21.0789 7.75651L20.9679 8.24404ZM22.9938 8.9433L22.7812 9.39583C23.3951 9.68429 23.979 10.038 24.5267 10.4496L24.8271 10.0499L25.1275 9.65025C24.5269 9.19879 23.8843 8.80926 23.2064 8.49076L22.9938 8.9433ZM24.8271 10.0499L24.5267 10.4496C25.0745 10.8614 25.5858 11.3304 26.0527 11.8495L26.4244 11.5151L26.7962 11.1808C26.2869 10.6145 25.728 10.1016 25.1275 9.65025L24.8271 10.0499ZM26.4244 11.5151L26.0525 11.8493C26.5197 12.3693 26.9432 12.9387 27.3149 13.5506L27.7423 13.2911L28.1696 13.0315C27.7659 12.3668 27.3053 11.7473 26.7963 11.1809L26.4244 11.5151ZM27.7423 13.2911L27.315 13.5508C27.6871 14.1628 28.0076 14.8178 28.2703 15.5074L28.7376 15.3294L29.2048 15.1514C28.9208 14.4058 28.5737 13.6961 28.1695 13.0313L27.7423 13.2911ZM28.7376 15.3294L28.2702 15.5072C28.5324 16.1965 28.7364 16.9212 28.8748 17.6724L29.3665 17.5818L29.8582 17.4912C29.7089 16.6806 29.4886 15.8976 29.2049 15.1517L28.7376 15.3294ZM29.3665 17.5818L28.8748 17.6724C29.0132 18.4235 29.086 19.2022 29.086 20.0005H29.586H30.086C30.086 19.1413 30.0076 18.302 29.8582 17.4912L29.3665 17.5818ZM29.586 20.0005H29.086C29.086 20.7983 29.0132 21.577 28.8748 22.3281L29.3665 22.4187L29.8582 22.5092C30.0076 21.6985 30.086 20.8592 30.086 20.0005H29.586ZM29.3665 22.4187L28.8748 22.3281C28.7364 23.0797 28.5325 23.8039 28.2702 24.4933L28.7376 24.6711L29.2049 24.8488C29.4886 24.103 29.7089 23.3204 29.8582 22.5092L29.3665 22.4187ZM28.7376 24.6711L28.2702 24.4934C28.0081 25.1831 27.6873 25.8374 27.315 26.4496L27.7423 26.7094L28.1695 26.9692C28.5735 26.3046 28.9212 25.5953 29.205 24.8487L28.7376 24.6711ZM27.7423 26.7094L27.3149 26.4499C26.9432 27.062 26.5197 27.6317 26.0527 28.151L26.4244 28.4853L26.7962 28.8197C27.3054 28.2536 27.766 27.6336 28.1696 26.969L27.7423 26.7094ZM26.4244 28.4853L26.0527 28.151C25.5856 28.6702 25.0745 29.1396 24.5269 29.5507L24.8271 29.9506L25.1273 30.3504C25.7281 29.8994 26.287 29.3858 26.7962 28.8197L26.4244 28.4853ZM24.8271 29.9506L24.5267 29.5509C23.9793 29.9623 23.3948 30.3157 22.7808 30.6048L22.9938 31.0572L23.2068 31.5095C23.8837 31.1908 24.5266 30.8019 25.1275 30.3502L24.8271 29.9506ZM22.9938 31.0572L22.7811 30.6047C22.1674 30.8932 21.5234 31.1171 20.8569 31.2689L20.9679 31.7564L21.079 32.244C21.8172 32.0758 22.5293 31.8281 23.2066 31.5097L22.9938 31.0572Z" fill="#27567C" mask="url(#path-4-outside-1_76_4)"/>
<mask id="path-6-outside-2_76_4" maskUnits="userSpaceOnUse" x="14.3051" y="9.02722" width="9" height="3" fill="black">
<rect fill="white" x="14.3051" y="9.02722" width="9" height="3"/>
<path d="M15.3051 10.812C16.3777 10.3065 17.5569 10.0272 18.793 10.0272C20.0296 10.0272 21.2083 10.3065 22.281 10.812"/>
</mask>
<path d="M15.0919 10.3597C14.8421 10.4774 14.735 10.7753 14.8528 11.0251C14.9705 11.2749 15.2684 11.382 15.5182 11.2643L15.3051 10.812L15.0919 10.3597ZM22.0679 11.2643C22.3177 11.382 22.6156 11.2749 22.7333 11.0251C22.851 10.7753 22.744 10.4774 22.4942 10.3597L22.281 10.812L22.0679 11.2643ZM15.3051 10.812L15.5182 11.2643C16.5267 10.7891 17.6333 10.5272 18.793 10.5272V10.0272V9.52722C17.4805 9.52722 16.2288 9.82399 15.0919 10.3597L15.3051 10.812ZM18.793 10.0272V10.5272C19.9532 10.5272 21.0594 10.7891 22.0679 11.2643L22.281 10.812L22.4942 10.3597C21.3573 9.824 20.106 9.52722 18.793 9.52722V10.0272Z" fill="#27567C" mask="url(#path-6-outside-2_76_4)"/>
<path d="M12.6774 12.271C12.7755 12.1806 12.9281 12.1831 13.0231 12.2769C13.1178 12.3706 13.1218 12.5223 13.0328 12.6216L11.818 13.9771C11.7289 14.0765 11.5767 14.0887 11.4733 14.0044C11.3699 13.92 11.351 13.7689 11.4303 13.6616C11.8055 13.1543 12.2238 12.689 12.6774 12.271Z" stroke="#27567C" stroke-width="0.5" stroke-miterlimit="10" stroke-linecap="round" stroke-linejoin="round"/>
<path d="M14.3607 30.9634C14.4107 30.8403 14.5486 30.7774 14.6742 30.8208L16.6996 31.52C16.825 31.5633 16.895 31.6971 16.8588 31.8247C16.8223 31.9523 16.6922 32.0297 16.5629 32.0005C15.8426 31.8365 15.147 31.5946 14.4857 31.2837C14.3656 31.2272 14.3109 31.0864 14.3607 30.9634Z" stroke="#27567C" stroke-width="0.5" stroke-miterlimit="10" stroke-linecap="round" stroke-linejoin="round"/>
<path d="M19.1398 19.8005C20.7659 19.8005 22.0841 18.3348 22.0841 16.5269C22.0841 14.719 20.7659 13.2534 19.1398 13.2534C17.5137 13.2534 16.1956 14.719 16.1956 16.5269C16.1956 18.3348 17.5137 19.8005 19.1398 19.8005Z" fill="#27567C"/>
<path d="M31.2393 17.6567L28.0212 19.7226C27.7435 19.9009 27.3914 19.8516 27.1659 19.5979C25.6755 17.9177 22.5165 14.9365 18.8503 14.9365C14.9594 14.9365 11.6305 18.3033 10.2701 19.9009C9.87629 20.3634 9.87629 21.0839 10.2701 21.5464C11.6309 23.144 14.9598 26.5108 18.8503 26.5108C22.5165 26.5108 25.6755 23.5296 27.1659 21.8494C27.391 21.5952 27.7431 21.5464 28.0212 21.7247L31.2393 23.7906C31.5775 24.0076 31.9999 23.7364 31.9999 23.3025V18.1448C31.9999 17.7109 31.5775 17.4397 31.2393 17.6567Z" fill="#FDC47B"/>
<path d="M20.1178 27.8799C20.1178 27.8799 18.8565 28.0606 18.1563 27.3043C17.4565 26.5481 17.583 25.1408 17.583 25.1408C17.583 25.1408 18.8443 24.9601 19.5441 25.7164C20.2448 26.4727 20.1178 27.8799 20.1178 27.8799Z" fill="#27567C"/>
<path d="M14.8825 17.694C14.7365 17.694 14.5939 17.7104 14.454 17.735C15.7549 17.9641 16.7502 19.2128 16.7502 20.7235C16.7502 22.2341 15.7549 23.4828 14.454 23.7119C14.5939 23.7365 14.7365 23.7529 14.8825 23.7529C16.3873 23.7529 17.6073 22.3965 17.6073 20.7235C17.6073 19.05 16.3873 17.694 14.8825 17.694Z" fill="#27567C"/>
<path d="M14.454 19.8005C14.454 20.1513 14.198 20.4355 13.8829 20.4355C13.5673 20.4355 13.3118 20.1509 13.3118 19.8005C13.3118 19.4497 13.5678 19.1655 13.8829 19.1655C14.198 19.1655 14.454 19.4497 14.454 19.8005Z" fill="#27567C"/>
<path d="M21.2996 16.2828V16.2838H21.3015C21.3027 16.2841 21.3046 16.2844 21.3064 16.2848C21.3101 16.2857 21.3157 16.2871 21.322 16.2887C21.3346 16.2919 21.3523 16.297 21.3748 16.3033C21.4203 16.3162 21.4857 16.3357 21.5681 16.3639C21.7328 16.4203 21.9667 16.5106 22.2507 16.649C22.8197 16.9265 23.5905 17.3969 24.4109 18.1686C24.5039 18.2563 24.5157 18.3998 24.4382 18.5016C24.3607 18.6034 24.2185 18.6306 24.1091 18.5641L21.114 16.7408C21.0094 16.6771 20.9665 16.5468 21.0125 16.4332C21.0585 16.3196 21.1801 16.2556 21.2996 16.2828Z" stroke="white" stroke-width="0.5" stroke-miterlimit="10" stroke-linecap="round" stroke-linejoin="round"/>
<path d="M25.2239 19.2041L26.0445 19.9266" stroke="white" stroke-width="0.5" stroke-miterlimit="10" stroke-linecap="round" stroke-linejoin="round"/>
</svg>
