<svg width="40" height="40" viewBox="0 0 40 40" fill="none" xmlns="http://www.w3.org/2000/svg">
<rect width="40" height="40" rx="20" fill="#98A8B8"/>
<path d="M29.5494 17.5055H10.4503C9.09695 17.5055 8 19.9727 8 23.0165C8 26.0603 9.09695 28.5276 10.4503 28.5276H18.503C18.9294 28.5276 19.2748 29.3045 19.2748 30.2634C19.2748 31.2224 19.6205 32 20.0469 32H25.509C25.9354 32 26.2812 31.2224 26.2812 30.2634C26.2812 29.3045 26.6269 28.5276 27.0533 28.5276H29.5497C30.903 28.5276 32 26.0603 32 23.0165C31.9997 19.9727 30.9027 17.5055 29.5494 17.5055Z" fill="#CCCCCC"/>
<path d="M25.7995 23.6295H14.2005C12.5099 23.6295 11.1397 20.547 11.1397 16.7453V14.8842C11.1397 11.0818 12.5102 8 14.2005 8H25.7995C27.4901 8 28.8603 11.0825 28.8603 14.8842V16.7453C28.8603 20.547 27.4897 23.6295 25.7995 23.6295Z" fill="white" stroke="#27567C" stroke-width="0.5" stroke-miterlimit="10"/>
<path d="M18.5499 9.82922H20" stroke="#27567C" stroke-width="0.5" stroke-miterlimit="10" stroke-linecap="round" stroke-linejoin="round"/>
<path d="M12.6121 11.3117C12.7139 11.0833 12.8252 10.8762 12.9447 10.6941C13.0644 10.512 13.1919 10.3557 13.3265 10.2275C13.4607 10.0993 13.6017 9.99992 13.7481 9.93239C13.8942 9.86487 14.0457 9.82922 14.2005 9.82922H15.6503" stroke="#27567C" stroke-width="0.5" stroke-miterlimit="10" stroke-linecap="round" stroke-linejoin="round"/>
<path d="M29.2077 18.9401H10.792C10.0242 18.9401 9.40222 17.5404 9.40222 15.8144C9.40222 14.0876 10.0246 12.6879 10.792 12.6879H29.2077C29.9754 12.6879 30.5974 14.0876 30.5974 15.8144C30.5974 17.5404 29.9754 18.9401 29.2077 18.9401Z" fill="#FA6880"/>
<path d="M12.8812 14.8994C14.3044 14.8994 14.3044 16.7294 15.7275 16.7294C17.1499 16.7294 17.15 14.8994 18.5724 14.8994C19.9962 14.8994 19.9962 16.7294 21.4197 16.7294C22.8442 16.7294 22.8442 14.8994 24.269 14.8994C25.6935 14.8994 25.6935 16.7294 27.1183 16.7294" stroke="#FDC47B" stroke-width="0.5" stroke-miterlimit="10" stroke-linecap="round" stroke-linejoin="round"/>
</svg>
